<svg xmlns="http://www.w3.org/2000/svg" version="1.1" xmlns:xlink="http://www.w3.org/1999/xlink" width="120" height="120" x="0" y="0" viewBox="0 0 120 120" style="enable-background:new 0 0 512 512" xml:space="preserve" class=""><g><path fill="#ff3f5c" d="M107.071 0H12.93C5.8 0 0 5.8 0 12.929v94.141C0 114.2 5.8 120 12.93 120h94.141C114.2 120 120 114.2 120 107.07V12.929C120 5.8 114.2 0 107.071 0zm0 0" opacity="1" data-original="#ff3f5c"/><path fill="#f30051" d="M107.071 0H60v120h47.071C114.2 120 120 114.2 120 107.07V12.929C120 5.8 114.2 0 107.071 0zm0 0" opacity="1" data-original="#f30051"/><path fill="#ff8398" d="M60 104.938V15.062C35.221 15.062 15.062 35.221 15.062 60S35.221 104.938 60 104.938zm0 0" opacity="1" data-original="#ff8398"/><path fill="#ff3f5c" d="M60 15.062v89.875c24.779 0 44.938 -20.159 44.938 -44.938 0 -24.778 -20.159 -44.938 -44.938 -44.938zm0 0" opacity="1" data-original="#ff3f5c"/><path fill="#e7f0ef" d="M41.21 51.471c2.233 0 2.753 1.043 2.864 2.726 0.03 0.781 0.44 2.545 3.501 2.545 1.503 0 3.502 -0.352 3.502 -3.389 0 -4.956 -4.041 -8.286 -10.055 -8.286 -6.174 0 -9.716 3.529 -9.716 9.679v10.507c0 6.15 3.596 9.678 9.867 9.678 6.294 0 9.905 -3.527 9.905 -9.678v-4.481c0 -1.502 -1.118 -2.637 -2.599 -2.637h-6.402c-1.459 0 -2.561 1.279 -2.561 2.975s1.101 2.976 2.561 2.976h1.997v1.167c0 2.936 -1.655 3.276 -2.9 3.276 -1.332 0 -2.861 -0.373 -2.861 -3.276v-10.508c-0.001 -2.903 1.548 -3.275 2.899 -3.275zm18.903 -6.402c-2.095 0 -3.503 1.029 -3.503 2.561V72.108c0 1.53 1.441 2.598 3.503 2.598 2.03 0 3.502 -1.093 3.502 -2.598V47.63c0.001 -1.532 -1.407 -2.561 -3.502 -2.561zm0 0" opacity="1" data-original="#e7f0ef"/><g fill="#c5e1e6"><path d="M86.134 45.069H72.991c-1.855 0 -3.201 1.092 -3.201 2.598v24.44c0 1.53 1.44 2.598 3.502 2.598 2.03 0 3.502 -1.092 3.502 -2.598v-9.263h4.707c1.682 0 2.562 -1.478 2.562 -2.938 0 -1.746 -1.078 -3.013 -2.562 -3.013h-4.707V51.471h9.339c1.508 0 2.561 -1.332 2.561 -3.239 0 -1.862 -1.053 -3.163 -2.561 -3.163zm-26.021 0c-0.038 0 -0.075 0.003 -0.112 0.004V74.702c0.037 0 0.074 0.004 0.112 0.004 2.03 0 3.502 -1.093 3.502 -2.598V47.63c0.001 -1.532 -1.407 -2.561 -3.502 -2.561zm0 0" fill="#c5e1e6" opacity="1" data-original="#c5e1e6"/></g></g></svg>